<svg height="512" viewBox="0 0 59 60" width="512" xmlns="http://www.w3.org/2000/svg"><g id="Page-1" fill="none" fill-rule="evenodd"><g id="062---Recording-Podcast" fill="rgb(0,0,0)" fill-rule="nonzero" transform="translate(0 -1)"><path id="Shape" d="m15 17h1c.5522847 0 1-.4477153 1-1s-.4477153-1-1-1h-1c-.5522847 0-1 .4477153-1 1s.4477153 1 1 1z"/><path id="Shape" d="m15 21h1c.5522847 0 1-.4477153 1-1s-.4477153-1-1-1h-1c-.5522847 0-1 .4477153-1 1s.4477153 1 1 1z"/><path id="Shape" d="m15 13h1c.5522847 0 1-.4477153 1-1s-.4477153-1-1-1h-1c-.5522847 0-1 .4477153-1 1s.4477153 1 1 1z"/><path id="Shape" d="m15 25h1c.5522847 0 1-.4477153 1-1s-.4477153-1-1-1h-1c-.5522847 0-1 .4477153-1 1s.4477153 1 1 1z"/><path id="Shape" d="m59 22.5v-19c0-1.38071187-1.1192881-2.5-2.5-2.5h-25c-1.3807119 0-2.5 1.11928813-2.5 2.5v1.344c-4.4001015-3.95932062-10.7190332-4.95637267-16.1244726-2.54424942-5.40543932 2.41212324-8.88362142 7.78103942-8.8755274 13.70024942v10.184c-.32025698-.1184378-.65856033-.1806856-1-.184-1.65685425 0-3 1.3431458-3 3 .01354605 8.3923409 5.81905948 15.6641611 14 17.536v2.464c0 1.1045695.8954305 2 2 2v4h-5c-1.65685425 0-3 1.3431458-3 3v2c0 .5522847.44771525 1 1 1h20c.5522847 0 1-.4477153 1-1v-2c0-1.6568542-1.3431458-3-3-3h-5v-4c1.1045695 0 2-.8954305 2-2v-2.464c8.1809405-1.8718389 13.986454-9.1436591 14-17.536-.0012169-.8212009-.3404702-1.605679-.938-2.169l2.974-1.7c.1508348-.0858859.3214272-.1310326.495-.131h15.969c.6630412 0 1.298926-.2633921 1.767767-.732233.4688409-.468841.732233-1.1047258.732233-1.767767zm-40-19.5c3.448687-.00557622 6.7571484 1.36467105 9.192 3.807.2853434.29117835.555055.59727427.808.917v3.276h-7c-.5522847 0-1 .4477153-1 1s.4477153 1 1 1h7v2h-7c-.5522847 0-1 .4477153-1 1s.4477153 1 1 1h7v2h-7c-.5522847 0-1 .4477153-1 1s.4477153 1 1 1h7v1.5c.0001612.1679567.0172475.3354696.051.5h-7.051c-.5522847 0-1 .4477153-1 1s.4477153 1 1 1h9.5c.2761424 0 .5.2238576.5.5v1.5h-26v-2h5c.5522847 0 1-.4477153 1-1s-.4477153-1-1-1h-5v-2h5c.5522847 0 1-.4477153 1-1s-.4477153-1-1-1h-5v-2h5c.5522847 0 1-.4477153 1-1s-.4477153-1-1-1h-4.949c.05153592-.6738002.155856-1.3425187.312-2h4.637c.5522847 0 1-.4477153 1-1s-.4477153-1-1-1h-4c2.02240372-4.84119824 6.753354-7.99516512 12-8zm-7 28h-5.819c-.11617319-.6604298-.17671897-1.3294439-.181-2h26c-.004281.6705561-.0648268 1.3395702-.181 2h-15.819c-.5522847 0-1 .4477153-1 1s.4477153 1 1 1h15.3c-1.6959518 4.7879275-6.2205881 7.9912099-11.3 8h-2c-5.0794119-.0087901-9.60404824-3.2120725-11.3-8h5.3c.5522847 0 1-.4477153 1-1s-.4477153-1-1-1zm16 27v1h-18v-1c0-.5522847.4477153-1 1-1h16c.5522847 0 1 .4477153 1 1zm-8-3h-2v-4h2zm2-6h-6v-2.118c.6639768.0762279 1.3316661.1156216 2 .118h2c.6683339-.0023784 1.3360232-.0417721 2-.118zm14-20c-.0104696 8.8322157-7.1677843 15.9895304-16 16h-2c-8.8322157-.0104696-15.98953038-7.1677843-16-16 .00000001-.5522847.44771526-1 1-1s.99999999.4477153 1 1c.00430522 1.121698.14398197 2.2387762.416 3.327.008.023.009.049.018.071 1.56171878 6.2228895 7.150146 10.5903158 13.566 10.602h2c6.4152729-.0114532 12.0035068-4.3779045 13.566-10.6.009-.022.01-.048.018-.071.2721778-1.0888732.4118557-2.2066326.416-3.329-.0001143-.1694264.0403474-.3364165.118-.487l.894-.513c.5475928.0065716.9880394.4523678.988 1zm3.043-5.6-5.043 2.877v-.777c0-1.3807119-1.1192881-2.5-2.5-2.5-.2761424 0-.5-.2238576-.5-.5v-19c0-.27614237.2238576-.5.5-.5h25c.2761424 0 .5.22385763.5.5v19c0 .2761424-.2238576.5-.5.5h-15.969c-.5224089.0011877-1.0354087.1390908-1.488.4z"/><path id="Shape" d="m44 10c-1.6568542 0-3 1.3431458-3 3s1.3431458 3 3 3 3-1.3431458 3-3-1.3431458-3-3-3zm0 4c-.5522847 0-1-.4477153-1-1s.4477153-1 1-1 1 .4477153 1 1-.4477153 1-1 1z"/><path id="Shape" d="m36 10c-1.6568542 0-3 1.3431458-3 3s1.3431458 3 3 3 3-1.3431458 3-3-1.3431458-3-3-3zm0 4c-.5522847 0-1-.4477153-1-1s.4477153-1 1-1 1 .4477153 1 1-.4477153 1-1 1z"/><path id="Shape" d="m52 10c-1.6568542 0-3 1.3431458-3 3s1.3431458 3 3 3 3-1.3431458 3-3-1.3431458-3-3-3zm0 4c-.5522847 0-1-.4477153-1-1s.4477153-1 1-1 1 .4477153 1 1-.4477153 1-1 1z"/></g></g></svg>